<svg id="visual" viewBox="0 0 900 600" width="900" height="600" xmlns="http://www.w3.org/2000/svg" xmlns:xlink="http://www.w3.org/1999/xlink" version="1.1"><rect x="0" y="0" width="900" height="600" fill="#1d1d1d"></rect><path d="M0 416L21.5 427.3C43 438.7 86 461.3 128.8 466.8C171.7 472.3 214.3 460.7 257.2 448.3C300 436 343 423 385.8 422.7C428.7 422.3 471.3 434.7 514.2 435.8C557 437 600 427 642.8 431.8C685.7 436.7 728.3 456.3 771.2 449.5C814 442.7 857 409.3 878.5 392.7L900 376L900 601L878.5 601C857 601 814 601 771.2 601C728.3 601 685.7 601 642.8 601C600 601 557 601 514.2 601C471.3 601 428.7 601 385.8 601C343 601 300 601 257.2 601C214.3 601 171.7 601 128.8 601C86 601 43 601 21.5 601L0 601Z" fill="#F7770F" stroke-linecap="round" stroke-linejoin="miter"></path></svg>